<svg xmlns="http://www.w3.org/2000/svg" width="128" height="128" viewBox="0 0 128 128" version="1.1">
	<path d="M 56.449 12.551 C 51.260 15.112, 50 18.513, 50 29.954 C 50 47.374, 51.961 49, 72.959 49 L 87.018 49 90.184 52.025 C 91.925 53.689, 93.833 54.889, 94.425 54.693 C 95.119 54.462, 95.608 48.340, 95.805 37.418 C 96.259 12.195, 95.206 10.985, 72.849 11.023 C 63.015 11.040, 58.697 11.442, 56.449 12.551 M 35.315 38.007 C 32.363 39.196, 31.139 41.842, 31.733 45.750 L 32.227 49 27.336 49 C 23.682 49, 22.011 48.494, 20.732 47 C 19.449 45.501, 17.782 45, 14.081 45 C 5.838 45, 6 44.430, 6 73.505 L 6 98.867 3.250 99.184 L 0.500 99.500 0.500 108 L 0.500 116.500 63.388 116.758 C 109.008 116.944, 126.651 116.705, 127.638 115.885 C 129.096 114.675, 129.672 98.894, 128.250 99.118 C 127.838 99.184, 126.263 99.184, 124.750 99.118 L 122 99 122 72.571 C 122 42.915, 122.020 43, 115 43 C 109.152 43, 108 44.797, 108 53.925 L 108 61.707 102.750 60.287 C 95.588 58.350, 86.032 59.260, 79.385 62.512 C 68.001 68.082, 61.042 78.672, 60.206 91.695 C 59.764 98.580, 59.601 99, 57.368 99 C 56.066 99, 54.993 98.888, 54.985 98.750 C 54.666 93.534, 44.755 39.410, 43.938 38.425 C 42.627 36.846, 38.673 36.654, 35.315 38.007 M 36 43.066 C 36 44.561, 45.039 98.372, 45.341 98.674 C 45.952 99.285, 50 97.665, 50 96.809 C 50 95.749, 42.301 49.118, 41.405 44.750 C 40.977 42.663, 40.258 42, 38.421 42 C 37.089 42, 36 42.480, 36 43.066 M 85.533 64.608 C 74.423 68.141, 66.684 76.957, 64.742 88.296 C 64.143 91.793, 63.915 95.335, 64.235 96.169 C 64.876 97.839, 78.484 98.987, 97.750 98.995 L 108 99 108 82.949 L 108 66.898 104.574 65.466 C 99.120 63.188, 91.132 62.827, 85.533 64.608 M 80.362 74.500 C 79.569 76.564, 80.644 79, 82.346 79 C 84.393 79, 86.135 76.514, 85.410 74.627 C 84.626 72.584, 81.131 72.496, 80.362 74.500 M 100.591 74.625 C 99.742 76.835, 102.310 79.479, 104.493 78.641 C 105.508 78.252, 106.017 77.143, 105.820 75.754 C 105.421 72.946, 101.555 72.111, 100.591 74.625 M 36.136 86.250 L 36 99 38.349 99 L 40.699 99 38.949 88.728 C 37.986 83.078, 36.990 77.340, 36.736 75.978 C 36.481 74.615, 36.211 79.237, 36.136 86.250 M 76.701 85.632 C 76.316 86.018, 76 87.190, 76 88.236 C 76 89.638, 76.593 90.055, 78.250 89.820 C 79.721 89.611, 80.500 88.812, 80.500 87.514 C 80.500 85.530, 78.028 84.306, 76.701 85.632 M 89 88 C 87.900 89.100, 87 90.900, 87 92 C 87 93.100, 87.900 94.900, 89 96 C 90.100 97.100, 91.900 98, 93 98 C 94.100 98, 95.900 97.100, 97 96 C 98.100 94.900, 99 93.100, 99 92 C 99 90.900, 98.100 89.100, 97 88 C 95.900 86.900, 94.100 86, 93 86 C 91.900 86, 90.100 86.900, 89 88 M 0.349 108 C 0.349 112.675, 0.522 114.587, 0.732 112.250 C 0.943 109.912, 0.943 106.087, 0.732 103.750 C 0.522 101.412, 0.349 103.325, 0.349 108" stroke="none" fill="black" fill-rule="evenodd"/>
</svg>